{"title":"Infamous.Assassinations.Reinhard.Heydrich.(2007).TVRip.(DivX).","uid":6656884,"size":297693536,"categoryP":"video","categoryS":"tv_shows","magnet":"?xt=urn:btih:8b21e5d753d145504caac39feae154bc04a64ab1&amp;dn=Infamous.Assassinations.Reinhard.Heydrich.%282007%29.TVRip.%28DivX%29.&amp;tr=udp%3A%2F%2Ftracker.openbittorrent.com%3A80&amp;tr=udp%3A%2F%2Fopen.demonii.com%3A1337&amp;tr=udp%3A%2F%2Ftracker.coppersurfer.tk%3A6969&amp;tr=udp%3A%2F%2Fexodus.desync.com%3A6969","seeders":1,"leechers":0,"uploader":"User_01","files":-1,"time":1315352534,"description":"Infamous Assassinations is a 2007 British documentary television series about high-profile murders and attempted murders of public figures. It is currently being shown on Yesterday. Check here for full list\n &lt;a href=&quot;\nhttp://en.wikipedia.org/wiki/Infamous_Assassinations&quot; rel=&quot;nofollow&quot; target=&quot;_NEW&quot;&gt;\nhttp://en.wikipedia.org/wiki/Infamous_Assassinations&lt;/a&gt;\n\nOn 27 May 1942 in Prague, Czechoslovakia, Nazi Heydrich was hit by bomb thrown by Czechs Jan Kubis and Jozef Gabcik. Heydrich died of his injuries on 4 June 1942.\n\nMediaInfo\nGeneral\nFormat                           : AVI\nFormat/Info                      : Audio Video Interleave\nFile size                        : 284 MiB\nDuration                         : 22mn 36s\nOverall bit rate                 : 1 756 Kbps\n\nVideo\nID                               : 0\nFormat                           : MPEG-4 Visual\nFormat settings, BVOP            : Yes\nFormat settings, QPel            : No\nFormat settings, GMC             : No warppoints\nFormat settings, Matrix          : Default (H.263)\nCodec ID                         : DIVX\nCodec ID/Info                    : Project Mayo\nCodec ID/Hint                    : DivX 4\nDuration                         : 22mn 27s\nBit rate                         : 1 500 Kbps\nWidth                            : 512 pixels\nHeight                           : 384 pixels\nDisplay aspect ratio             : 4:3\nframe rate                       : 25.000 fps\nResolution                       : 24 bits\nScan type                        : Progressive\nBits/(Pixel*frame)               : 0.305\nStream size                      : 241 MiB (85%)\n\nAudio\nFormat                           : ADPCM\nCodec ID                         : 11\nCodec ID/Hint                    : Intel\nDuration                         : 22mn 36s\nBit rate mode                    : Constant\nBit rate                         : 256 Kbps\nChannel(s)                       : 2 channels\nSampling rate                    : 32.0 KHz\nResolution                       : 4 bits\nStream size                      : 41.4 MiB (15%)\nInterleave, duration             : 40 ms (1.00 video frame)","torrent":{"xt":"urn:btih:8b21e5d753d145504caac39feae154bc04a64ab1","amp;dn":"Infamous.Assassinations.Reinhard.Heydrich.%282007%29.TVRip.%28DivX%29.","amp;tr":["udp%3A%2F%2Ftracker.openbittorrent.com%3A80","udp%3A%2F%2Fopen.demonii.com%3A1337","udp%3A%2F%2Ftracker.coppersurfer.tk%3A6969","udp%3A%2F%2Fexodus.desync.com%3A6969"],"infoHash":"8b21e5d753d145504caac39feae154bc04a64ab1","infoHashBuffer":{"type":"Buffer","data":[139,33,229,215,83,209,69,80,76,170,195,159,234,225,84,188,4,166,74,177]},"announce":[],"urlList":[]}}